<svg width="512" height="512" viewBox="0 0 512 512" fill="none" xmlns="http://www.w3.org/2000/svg">
<rect x="15.5" y="15.5" width="481" height="481" rx="240.5" fill="white"/>
<g filter="url(#filter0_i_2_2)">
<path d="M167 332.876C167 344.686 168.679 353.823 172.038 360.285C175.396 366.747 180.994 371.315 188.83 373.989C196.891 376.663 207.974 378 222.079 378C265.292 378 296.526 374.546 315.781 367.638C335.26 360.953 345 349.032 345 331.873V180.124C345 168.314 343.321 159.177 339.962 152.715C336.604 146.253 331.006 141.685 323.17 139.011C315.333 136.337 304.25 135 289.921 135C246.932 135 215.698 138.343 196.219 145.028C176.74 151.935 167 163.968 167 181.127V332.876ZM304.698 330.202C304.698 338.001 303.019 343.906 299.66 347.917C296.526 351.928 290.481 354.937 281.525 356.942C272.569 359.171 258.575 360.285 239.543 360.285C231.035 360.285 224.43 359.393 219.728 357.611C215.25 355.605 212.004 352.374 209.989 347.917C208.197 343.238 207.302 336.664 207.302 328.197V182.798C207.078 175.221 208.645 169.316 212.004 165.083C215.586 160.849 221.855 157.729 230.811 155.724C239.991 153.718 253.873 152.715 272.457 152.715C280.965 152.715 287.458 153.718 291.936 155.724C296.638 157.506 299.884 160.737 301.675 165.417C303.691 169.873 304.698 176.336 304.698 184.803V330.202Z" fill="#DFDFDF"/>
</g>
<g filter="url(#filter1_i_2_2)">
<path d="M197.472 436.994C201.775 436.795 204.86 436.918 206.728 437.365C209.052 437.92 210.01 439.049 209.603 440.75L203.904 464.59C203.654 465.452 203.547 466.084 203.582 466.487C203.668 466.859 203.951 467.146 204.429 467.348C204.897 467.591 205.754 467.862 206.999 468.16C209.862 468.844 212.757 469.12 215.684 468.986C215.898 468.642 216.045 468.304 216.124 467.972C216.243 467.474 216.255 467.06 216.158 466.73L211.833 465.828C211.377 465.719 211.421 464.523 211.967 462.241L217.071 440.89C217.478 439.189 217.289 437.871 216.503 436.938C215.727 435.963 214.198 435.202 211.916 434.657C211.501 434.557 210.785 434.43 209.77 434.275C208.06 434.086 206.59 433.997 205.358 434.01C204.354 433.989 203.873 433.984 203.914 433.994C203.262 433.97 202.16 433.991 200.609 434.059L198.142 434.193C198.392 433.332 198.473 432.715 198.387 432.343C198.352 431.94 198.095 431.638 197.617 431.435C197.149 431.192 196.292 430.921 195.047 430.624C192.184 429.939 189.288 429.664 186.361 429.797C186.147 430.141 186.001 430.479 185.921 430.811C185.802 431.309 185.791 431.723 185.888 432.053L190.212 432.955C190.669 433.065 190.624 434.26 190.079 436.543L184.096 461.565C183.927 462.271 184.196 462.708 184.901 462.877C186.686 463.303 188.421 463.477 190.107 463.397C190.83 463.307 191.262 462.971 191.4 462.39L197.472 436.994Z" fill="#DFDFDF"/>
<path d="M247.207 440.179C247.115 441.584 246.853 442.657 246.421 443.398C246.03 444.143 245.312 444.673 244.265 444.99C243.264 445.267 241.78 445.406 239.813 445.407C239.618 445.779 239.494 446.37 239.441 447.179C239.392 447.945 239.478 448.592 239.7 449.12C241.38 448.929 242.646 448.862 243.497 448.917C245.03 449.016 246.043 449.552 246.536 450.525C247.074 451.458 247.262 453.18 247.099 455.692L246.589 463.548C246.498 464.953 246.215 466.025 245.74 466.763C245.307 467.505 244.588 468.035 243.584 468.355C242.623 468.678 241.221 468.865 239.379 468.916L238.481 468.922C236.991 468.826 235.978 468.29 235.442 467.314C234.95 466.342 234.778 464.706 234.927 462.407L235.37 455.573C235.42 454.807 235.061 454.399 234.295 454.349C230.29 454.132 228.2 454.702 228.027 456.059L227.588 462.829C227.37 466.192 227.858 468.554 229.053 469.914C230.29 471.277 232.553 471.98 235.843 472.022C242.081 472.084 246.537 471.604 249.212 470.58C251.926 469.601 253.387 467.516 253.594 464.322L254.141 455.892C254.317 453.167 254.024 451.096 253.261 449.678C252.543 448.221 251.047 447.226 248.772 446.693L248.781 446.566C250.642 446.216 251.959 445.682 252.733 444.962C253.506 444.243 253.932 443.287 254.009 442.095L254.452 435.261C254.659 432.068 254.338 429.759 253.49 428.336C252.718 427.046 250.821 426.303 247.798 426.107C246.648 426.033 245.473 426.021 244.273 426.071C243.118 426.082 242.411 426.1 242.153 426.126C240.396 426.183 238.695 426.372 237.05 426.693C235.449 426.974 234.163 427.361 233.19 427.854C232.085 428.424 231.199 429.221 230.534 430.247C229.872 431.23 229.495 432.424 229.404 433.83L228.936 441.046C228.886 441.813 229.245 442.221 230.011 442.27C234.099 442.535 236.188 441.965 236.279 440.56L236.664 434.621C236.758 433.173 237.042 432.08 237.518 431.341C237.996 430.56 238.737 430.009 239.741 429.69C240.788 429.373 242.275 429.191 244.202 429.145C245.488 429.1 246.404 429.48 246.95 430.285C247.496 431.09 247.708 432.451 247.583 434.367L247.207 440.179Z" fill="#DFDFDF"/>
<path d="M271.205 457.224C269.42 457.387 267.787 457.793 266.304 458.442C265.604 458.763 265.284 459.242 265.342 459.88L265.75 464.341C266.013 467.23 266.959 469.372 268.585 470.766C270.255 472.156 272.555 472.717 275.487 472.449C286.407 471.453 291.59 467.916 291.035 461.84L289.732 447.563C289.538 445.439 289.153 443.803 288.577 442.656C288.001 441.509 287.118 440.754 285.928 440.392C284.776 439.983 283.202 439.869 281.205 440.051C278.443 440.304 275.45 441.07 272.225 442.349L271.125 430.303C275.532 428.83 280.859 427.808 287.105 427.238C287.251 426.496 287.303 425.892 287.261 425.424C287.202 424.787 287.023 424.225 286.721 423.738C278.138 424.522 271.632 425.759 267.202 427.448C265.263 428.268 264.346 429.251 264.45 430.399L266.01 447.48C266.5 447.692 267.001 447.775 267.51 447.728C267.765 447.705 267.955 447.666 268.078 447.612C273.57 445.354 277.45 444.207 279.718 444.172C280.614 444.133 281.253 444.331 281.636 444.768C282.018 445.204 282.264 446.017 282.373 447.207L283.74 462.185C283.915 464.097 283.714 465.422 283.139 466.16C282.56 466.855 281.453 467.406 279.819 467.812C278.058 468.23 277.029 468.453 276.731 468.48C276.136 468.534 275.64 468.494 275.242 468.359C274.844 468.224 274.477 467.957 274.141 467.56C273.526 466.93 273.103 465.341 272.87 462.791L272.457 458.266C272.387 457.501 271.97 457.154 271.205 457.224Z" fill="#DFDFDF"/>
<path d="M326.874 439.741C326.103 436.68 325.033 434.617 323.665 433.554C322.287 432.449 320.336 432.215 317.812 432.851C314.792 433.611 310.966 435.279 306.335 437.854L304.38 430.097C303.682 427.676 304.347 425.947 306.373 424.909C309.092 423.476 312.355 422.279 316.161 421.32C317.692 420.935 318.923 420.669 319.854 420.522C319.925 419.932 319.914 419.451 319.82 419.079C319.664 418.458 319.394 417.91 319.01 417.435C317.479 417.644 315.596 418.031 313.362 418.594C301.198 421.658 295.82 425.983 297.227 431.569L304.326 459.744C305.087 462.765 306.151 464.806 307.519 465.87C308.918 466.881 310.921 467.059 313.527 466.402C315.596 465.881 317.515 465.288 319.283 464.622C321.051 463.956 322.881 463.099 324.773 462.051C326.851 460.867 328.38 459.514 329.36 457.991C330.371 456.416 330.658 454.76 330.22 453.022L326.874 439.741ZM307.132 441.019C308.073 440.386 309.349 439.691 310.962 438.932C312.606 438.122 313.904 437.597 314.856 437.357C316.18 437.024 317.23 437.265 318.008 438.081C318.817 438.845 319.487 440.283 320.018 442.393L323.067 454.494C323.547 456.398 323.286 457.893 322.284 458.982C321.272 460.029 319.318 461.005 316.422 461.911C315.077 462.338 314.011 462.21 313.224 461.529C312.436 460.847 311.787 459.493 311.276 457.465L307.132 441.019Z" fill="#DFDFDF"/>
</g>
<rect x="15.5" y="15.5" width="481" height="481" rx="240.5" stroke="#DFDFDF" stroke-width="31"/>
<defs>
<filter id="filter0_i_2_2" x="167" y="135" width="178" height="247" filterUnits="userSpaceOnUse" color-interpolation-filters="sRGB">
<feFlood flood-opacity="0" result="BackgroundImageFix"/>
<feBlend mode="normal" in="SourceGraphic" in2="BackgroundImageFix" result="shape"/>
<feColorMatrix in="SourceAlpha" type="matrix" values="0 0 0 0 0 0 0 0 0 0 0 0 0 0 0 0 0 0 127 0" result="hardAlpha"/>
<feOffset dy="4"/>
<feGaussianBlur stdDeviation="2"/>
<feComposite in2="hardAlpha" operator="arithmetic" k2="-1" k3="1"/>
<feColorMatrix type="matrix" values="0 0 0 0 0 0 0 0 0 0 0 0 0 0 0 0 0 0 0.25 0"/>
<feBlend mode="normal" in2="shape" result="effect1_innerShadow_2_2"/>
</filter>
<filter id="filter1_i_2_2" x="178.614" y="416.655" width="153.779" height="60.7365" filterUnits="userSpaceOnUse" color-interpolation-filters="sRGB">
<feFlood flood-opacity="0" result="BackgroundImageFix"/>
<feBlend mode="normal" in="SourceGraphic" in2="BackgroundImageFix" result="shape"/>
<feColorMatrix in="SourceAlpha" type="matrix" values="0 0 0 0 0 0 0 0 0 0 0 0 0 0 0 0 0 0 127 0" result="hardAlpha"/>
<feOffset dy="4"/>
<feGaussianBlur stdDeviation="2"/>
<feComposite in2="hardAlpha" operator="arithmetic" k2="-1" k3="1"/>
<feColorMatrix type="matrix" values="0 0 0 0 0 0 0 0 0 0 0 0 0 0 0 0 0 0 0.25 0"/>
<feBlend mode="normal" in2="shape" result="effect1_innerShadow_2_2"/>
</filter>
</defs>
</svg>
