<svg width="512" height="512" viewBox="0 0 512 512" fill="none" xmlns="http://www.w3.org/2000/svg">
<rect x="15.5" y="15.5" width="481" height="481" rx="240.5" fill="white"/>
<path d="M167 332.876C167 344.686 168.679 353.823 172.038 360.285C175.396 366.747 180.994 371.315 188.83 373.989C196.891 376.663 207.974 378 222.079 378C265.292 378 296.526 374.546 315.781 367.638C335.26 360.953 345 349.032 345 331.873V180.124C345 168.314 343.321 159.177 339.962 152.715C336.604 146.253 331.006 141.685 323.17 139.011C315.333 136.337 304.25 135 289.921 135C246.932 135 215.698 138.343 196.219 145.028C176.74 151.935 167 163.968 167 181.127V332.876ZM304.698 330.202C304.698 338.001 303.019 343.906 299.66 347.917C296.526 351.928 290.481 354.937 281.525 356.942C272.569 359.171 258.575 360.285 239.543 360.285C231.035 360.285 224.43 359.393 219.728 357.611C215.25 355.605 212.004 352.374 209.989 347.917C208.197 343.238 207.302 336.664 207.302 328.197V182.798C207.078 175.221 208.645 169.316 212.004 165.083C215.586 160.849 221.855 157.729 230.811 155.724C239.991 153.718 253.873 152.715 272.457 152.715C280.965 152.715 287.458 153.718 291.936 155.724C296.638 157.506 299.884 160.737 301.675 165.417C303.691 169.873 304.698 176.336 304.698 184.803V330.202Z" fill="#5B5B5B"/>
<rect x="15.5" y="15.5" width="481" height="481" rx="240.5" stroke="#5B5B5B" stroke-width="31"/>
</svg>
